<svg xmlns="http://www.w3.org/2000/svg" width="1084" height="962" viewBox="0 0 1084 962">
  <g fill="none" stroke="none">
    <!-- body fill -->
    <path d="M 76 520 L 62 534 L 63 548 L 96 575 L 114 575 L 123 566 L 123 548 L 95 520 Z M 1000 513 L 981 513 L 954 540 L 954 558 L 963 567 L 981 567 L 1014 540 L 1014 527 Z M 218 473 L 200 485 L 198 512 L 188 523 L 195 560 L 213 572 L 243 553 L 241 525 L 257 509 L 257 497 L 248 488 Z M 858 466 L 828 481 L 819 490 L 819 502 L 836 519 L 833 545 L 863 564 L 881 552 L 888 515 L 878 503 L 876 478 Z M 717 140 L 699 140 L 690 149 L 686 166 L 663 181 L 622 167 L 560 158 L 480 162 L 418 181 L 390 171 L 381 174 L 372 183 L 372 197 L 308 239 L 280 268 L 250 310 L 232 350 L 227 382 L 238 393 L 269 400 L 278 397 L 307 369 L 326 373 L 341 368 L 357 374 L 379 370 L 388 361 L 389 348 L 413 332 L 459 327 L 472 331 L 481 341 L 481 352 L 472 362 L 446 363 L 421 371 L 412 380 L 412 394 L 404 412 L 394 422 L 372 420 L 356 425 L 345 421 L 328 428 L 313 423 L 298 428 L 289 437 L 289 457 L 308 476 L 310 513 L 304 537 L 296 545 L 296 565 L 283 581 L 283 593 L 289 602 L 283 631 L 308 663 L 310 744 L 326 766 L 326 790 L 335 799 L 422 828 L 514 842 L 567 844 L 649 838 L 681 830 L 764 795 L 773 786 L 773 763 L 785 749 L 788 735 L 781 678 L 806 642 L 806 630 L 797 621 L 797 611 L 807 601 L 807 588 L 781 559 L 780 537 L 772 529 L 767 508 L 767 473 L 785 452 L 785 440 L 776 431 L 756 424 L 744 427 L 726 419 L 714 422 L 704 418 L 687 423 L 678 421 L 668 410 L 673 378 L 664 369 L 644 362 L 612 363 L 601 359 L 591 348 L 592 337 L 604 326 L 638 322 L 677 334 L 695 362 L 718 370 L 731 367 L 780 379 L 804 393 L 838 386 L 857 369 L 853 344 L 829 297 L 781 247 L 742 225 L 714 196 L 714 185 L 729 170 L 727 150 Z M 491 386 L 515 389 L 542 376 L 567 390 L 587 389 L 596 398 L 596 415 L 581 431 L 580 459 L 574 472 L 578 500 L 564 515 L 539 519 L 517 505 L 517 474 L 506 437 L 486 418 L 480 406 L 481 395 Z M 589 247 L 601 236 L 630 232 L 654 240 L 664 251 L 664 262 L 647 274 L 609 271 L 590 258 Z M 466 244 L 466 257 L 449 269 L 408 276 L 393 265 L 393 251 L 422 235 L 449 233 Z" fill="#FFFFFF" fill-rule="evenodd"/>
    <!-- pink cheeks -->
    <path d="M 250 421 L 242 421 L 230 428 L 217 449 L 208 449 L 205 440 L 217 419 L 218 412 L 210 405 L 197 402 L 191 407 L 187 439 L 182 444 L 176 444 L 172 441 L 174 417 L 170 407 L 162 396 L 153 395 L 132 402 L 132 416 L 138 434 L 135 441 L 129 441 L 105 417 L 98 414 L 87 416 L 74 428 L 72 435 L 84 453 L 83 458 L 78 462 L 55 465 L 47 472 L 44 487 L 48 501 L 66 510 L 65 518 L 47 532 L 47 539 L 57 559 L 63 565 L 78 570 L 75 592 L 81 603 L 87 606 L 105 603 L 109 608 L 109 619 L 131 626 L 134 623 L 136 603 L 142 597 L 149 602 L 152 619 L 175 625 L 179 622 L 181 605 L 186 599 L 195 600 L 200 608 L 209 614 L 236 601 L 230 575 L 235 571 L 253 575 L 269 556 L 252 536 L 251 528 L 256 524 L 278 522 L 284 508 L 284 493 L 279 483 L 258 475 L 242 477 L 236 471 L 240 464 L 252 460 L 261 452 L 260 443 Z M 176 536 L 185 553 L 185 563 L 180 574 L 164 582 L 141 580 L 133 568 L 133 558 L 137 554 L 143 554 L 152 568 L 167 565 L 169 556 L 164 538 L 168 534 Z M 189 477 L 189 504 L 184 514 L 179 514 L 175 509 L 176 489 L 172 486 L 160 486 L 156 494 L 157 509 L 153 513 L 144 513 L 135 501 L 129 500 L 124 508 L 128 521 L 127 528 L 120 531 L 112 523 L 107 508 L 118 487 L 139 486 L 150 472 L 182 472 Z M 827 413 L 817 434 L 816 446 L 837 457 L 840 464 L 833 470 L 817 468 L 798 475 L 793 483 L 793 503 L 798 514 L 819 516 L 826 522 L 824 529 L 808 545 L 808 551 L 823 567 L 843 564 L 847 568 L 840 593 L 864 606 L 869 606 L 882 592 L 890 591 L 895 597 L 898 616 L 903 617 L 925 611 L 929 592 L 936 590 L 940 594 L 943 617 L 946 619 L 969 610 L 967 602 L 972 595 L 985 599 L 996 595 L 1001 588 L 998 563 L 1014 557 L 1019 552 L 1029 531 L 1029 524 L 1011 510 L 1010 504 L 1013 500 L 1027 495 L 1032 481 L 1032 472 L 1026 461 L 1016 455 L 1000 455 L 993 450 L 993 444 L 1002 434 L 1004 423 L 990 409 L 977 407 L 970 410 L 948 433 L 943 434 L 939 431 L 939 424 L 943 415 L 944 394 L 922 387 L 914 388 L 906 399 L 902 411 L 905 430 L 900 437 L 892 436 L 889 431 L 885 399 L 879 394 L 867 397 L 858 404 L 860 414 L 871 431 L 871 438 L 867 442 L 860 442 L 846 420 L 833 413 Z M 901 528 L 907 526 L 913 531 L 907 550 L 911 558 L 927 559 L 934 546 L 939 546 L 943 550 L 943 562 L 933 574 L 912 575 L 897 567 L 891 555 L 891 546 Z M 887 470 L 898 464 L 923 464 L 933 470 L 937 479 L 959 480 L 964 486 L 969 502 L 962 519 L 955 524 L 949 520 L 952 499 L 948 493 L 942 493 L 933 505 L 924 506 L 919 500 L 919 480 L 913 478 L 901 480 L 901 502 L 896 507 L 892 506 L 887 494 Z M 396 370 L 378 359 L 359 354 L 331 355 L 309 363 L 286 383 L 279 398 L 279 416 L 283 428 L 297 443 L 316 452 L 349 454 L 371 448 L 400 425 L 407 411 L 407 390 L 404 388 L 389 414 L 384 414 L 379 407 L 381 394 L 390 381 L 401 382 Z M 368 382 L 374 391 L 365 410 L 357 416 L 351 411 L 350 403 L 357 388 Z M 312 379 L 317 388 L 306 414 L 301 418 L 295 418 L 290 413 L 293 399 L 301 384 L 306 379 Z M 342 378 L 348 386 L 334 413 L 326 418 L 320 412 L 319 405 L 333 383 Z M 679 374 L 671 394 L 672 411 L 680 428 L 703 444 L 718 448 L 761 444 L 775 437 L 791 415 L 792 384 L 779 365 L 761 354 L 745 350 L 721 350 L 697 359 Z M 781 389 L 786 398 L 779 412 L 768 419 L 764 415 L 765 403 L 773 390 Z M 756 383 L 761 387 L 762 393 L 752 413 L 748 417 L 743 417 L 738 412 L 741 396 L 750 383 Z M 732 377 L 737 383 L 735 390 L 721 411 L 712 411 L 708 402 L 723 379 Z M 701 373 L 706 377 L 706 384 L 692 410 L 684 413 L 678 407 L 679 399 L 691 378 Z" fill="#F7B7C6" fill-rule="evenodd"/>
    <!-- pink pompons (approx) -->
    <circle cx="170" cy="520" r="130" fill="#F7B7C6"/>
    <circle cx="915" cy="520" r="130" fill="#F7B7C6"/>
    <!-- black strokes -->
    <path d="M 762 813 L 760 811 L 751 811 L 740 819 L 689 841 L 659 849 L 631 853 L 567 857 L 514 855 L 471 849 L 446 843 L 414 839 L 381 829 L 347 815 L 341 815 L 339 820 L 353 830 L 385 842 L 451 860 L 521 870 L 561 871 L 622 868 L 700 850 L 738 834 L 755 823 Z M 796 679 L 794 686 L 802 729 L 798 753 L 786 767 L 787 774 L 791 776 L 796 774 L 804 765 L 823 754 L 838 756 L 845 767 L 845 774 L 839 786 L 821 800 L 793 808 L 780 807 L 775 804 L 771 807 L 782 816 L 809 817 L 831 808 L 849 794 L 855 784 L 856 768 L 851 756 L 841 747 L 833 744 L 814 746 L 810 744 L 811 718 L 807 694 L 803 682 L 800 679 Z M 289 665 L 287 667 L 283 693 L 285 739 L 283 742 L 261 740 L 249 745 L 243 755 L 242 772 L 254 793 L 269 806 L 295 820 L 309 824 L 325 822 L 329 819 L 329 815 L 326 812 L 309 811 L 289 803 L 265 785 L 254 767 L 257 754 L 266 748 L 273 748 L 288 757 L 305 776 L 311 777 L 313 775 L 313 770 L 308 761 L 297 748 L 294 723 L 296 671 L 293 665 Z M 174 538 L 168 537 L 166 541 L 172 556 L 171 564 L 166 569 L 151 571 L 145 566 L 142 557 L 136 559 L 136 568 L 143 578 L 152 580 L 164 579 L 174 576 L 179 571 L 182 563 L 182 554 Z M 903 530 L 894 546 L 894 554 L 898 564 L 902 568 L 913 572 L 932 571 L 939 564 L 941 552 L 935 549 L 931 559 L 926 563 L 910 561 L 904 552 L 910 532 L 907 529 Z M 565 494 L 563 491 L 559 491 L 551 497 L 543 497 L 530 492 L 528 497 L 534 504 L 551 507 L 561 502 Z M 186 478 L 181 475 L 150 475 L 142 489 L 124 488 L 119 490 L 110 508 L 116 524 L 120 528 L 125 526 L 121 507 L 128 497 L 135 497 L 146 511 L 151 511 L 154 508 L 154 489 L 159 483 L 170 483 L 178 486 L 178 509 L 183 511 L 187 493 Z M 890 471 L 890 495 L 894 504 L 899 499 L 899 478 L 902 476 L 919 476 L 922 479 L 924 488 L 922 500 L 925 503 L 931 503 L 941 490 L 949 490 L 955 499 L 952 519 L 957 520 L 965 507 L 965 497 L 961 486 L 957 482 L 935 482 L 931 477 L 930 471 L 924 467 L 899 467 Z M 780 392 L 774 393 L 770 399 L 767 408 L 769 416 L 776 411 L 783 398 Z M 495 398 L 493 402 L 499 414 L 515 422 L 518 426 L 522 452 L 530 471 L 538 476 L 549 476 L 558 472 L 567 455 L 567 425 L 581 414 L 584 408 L 583 402 L 577 400 L 570 409 L 556 411 L 549 404 L 545 391 L 539 389 L 534 393 L 534 403 L 531 407 L 515 412 L 508 407 L 504 399 Z M 537 416 L 542 416 L 558 425 L 556 452 L 553 459 L 547 465 L 542 465 L 537 460 L 531 445 L 530 422 Z M 755 386 L 751 386 L 748 389 L 742 402 L 741 411 L 744 414 L 749 412 L 758 395 L 759 390 Z M 367 385 L 364 385 L 359 390 L 355 398 L 353 408 L 356 412 L 362 409 L 370 394 L 371 389 Z M 395 384 L 391 384 L 384 395 L 382 407 L 385 411 L 391 408 L 399 390 Z M 311 382 L 307 382 L 298 395 L 293 408 L 293 412 L 296 415 L 303 413 L 307 399 L 314 387 Z M 341 381 L 332 389 L 322 406 L 323 411 L 327 415 L 331 412 L 344 388 L 344 384 Z M 731 380 L 724 382 L 717 391 L 711 403 L 714 409 L 721 407 L 732 389 L 733 382 Z M 702 377 L 696 377 L 681 403 L 684 410 L 690 408 L 703 384 Z M 468 345 L 466 342 L 459 340 L 437 340 L 422 343 L 405 349 L 402 352 L 401 359 L 403 362 L 409 363 L 422 356 L 436 354 L 445 350 L 464 352 L 467 350 Z M 604 344 L 612 350 L 622 348 L 647 349 L 663 356 L 673 352 L 671 345 L 659 339 L 638 335 L 610 337 Z M 602 251 L 609 258 L 628 257 L 640 261 L 647 261 L 651 258 L 648 251 L 630 245 L 607 247 Z M 453 249 L 442 245 L 422 248 L 408 254 L 406 261 L 414 263 L 432 256 L 449 256 L 453 253 Z M 745 203 L 743 209 L 748 214 L 760 219 L 787 236 L 812 259 L 842 293 L 856 316 L 866 340 L 877 380 L 874 383 L 851 390 L 845 397 L 846 403 L 844 405 L 828 401 L 818 401 L 815 404 L 805 428 L 800 452 L 805 459 L 786 468 L 780 477 L 780 504 L 785 525 L 789 528 L 802 527 L 804 529 L 794 542 L 794 555 L 814 578 L 827 583 L 826 598 L 810 617 L 814 618 L 835 606 L 860 620 L 851 631 L 823 651 L 810 655 L 808 659 L 811 662 L 821 662 L 832 658 L 851 646 L 882 618 L 887 626 L 894 630 L 904 629 L 914 624 L 929 623 L 937 631 L 945 632 L 967 625 L 979 618 L 987 610 L 1004 604 L 1013 593 L 1013 572 L 1027 563 L 1039 542 L 1042 528 L 1039 516 L 1032 512 L 1030 507 L 1040 499 L 1045 481 L 1045 469 L 1041 458 L 1034 451 L 1012 441 L 1018 426 L 1017 420 L 999 401 L 989 394 L 978 394 L 960 401 L 958 391 L 953 385 L 926 375 L 909 374 L 904 378 L 902 385 L 898 389 L 883 340 L 863 297 L 847 272 L 819 243 L 791 221 L 766 207 L 755 203 Z M 827 409 L 834 410 L 848 418 L 859 437 L 864 440 L 868 437 L 868 432 L 859 419 L 855 404 L 862 396 L 880 391 L 888 399 L 892 431 L 895 434 L 899 434 L 901 432 L 899 410 L 903 399 L 912 386 L 922 384 L 944 390 L 947 393 L 946 415 L 942 425 L 944 431 L 949 429 L 971 406 L 976 404 L 989 405 L 1007 422 L 1006 432 L 997 443 L 996 449 L 1000 452 L 1016 452 L 1028 459 L 1035 472 L 1035 481 L 1029 497 L 1024 501 L 1013 504 L 1015 511 L 1031 522 L 1032 532 L 1021 554 L 1015 560 L 1001 564 L 1004 589 L 998 597 L 988 602 L 973 598 L 971 600 L 973 610 L 959 619 L 944 622 L 940 617 L 939 602 L 935 593 L 931 594 L 929 610 L 926 614 L 901 621 L 895 616 L 892 598 L 889 594 L 883 595 L 870 609 L 863 609 L 837 594 L 844 569 L 842 567 L 834 567 L 825 571 L 820 569 L 804 548 L 823 523 L 818 519 L 797 517 L 791 507 L 789 496 L 791 479 L 796 473 L 811 466 L 825 465 L 833 467 L 837 464 L 835 459 L 825 456 L 812 445 L 815 431 L 823 413 Z M 746 129 L 728 113 L 717 109 L 703 109 L 688 115 L 675 127 L 661 153 L 646 147 L 610 139 L 561 132 L 528 131 L 474 137 L 447 143 L 427 152 L 422 152 L 414 123 L 400 109 L 390 106 L 371 107 L 350 117 L 338 132 L 334 150 L 335 161 L 346 186 L 320 199 L 292 218 L 264 245 L 242 272 L 212 326 L 197 387 L 178 399 L 168 382 L 158 381 L 125 391 L 119 397 L 116 409 L 98 401 L 86 402 L 66 420 L 58 432 L 64 445 L 64 450 L 52 453 L 36 464 L 32 474 L 32 491 L 37 508 L 46 515 L 35 529 L 36 546 L 48 569 L 64 580 L 63 597 L 66 606 L 74 612 L 90 618 L 108 632 L 133 640 L 140 638 L 149 630 L 164 632 L 174 637 L 184 637 L 189 634 L 191 624 L 196 621 L 203 626 L 219 626 L 249 648 L 268 656 L 284 659 L 287 656 L 285 650 L 255 637 L 238 627 L 231 619 L 245 612 L 253 603 L 269 610 L 276 608 L 273 600 L 263 593 L 260 588 L 283 561 L 282 548 L 272 537 L 274 535 L 285 536 L 291 533 L 297 509 L 295 480 L 290 475 L 271 466 L 276 460 L 273 440 L 262 412 L 259 409 L 245 409 L 232 413 L 231 403 L 226 398 L 213 393 L 210 390 L 223 334 L 237 306 L 254 280 L 274 255 L 311 220 L 340 201 L 356 196 L 359 193 L 359 189 L 353 181 L 345 162 L 345 147 L 349 135 L 360 124 L 377 117 L 386 118 L 398 124 L 404 131 L 408 143 L 408 165 L 410 168 L 430 165 L 474 150 L 516 145 L 560 145 L 575 149 L 622 154 L 655 167 L 663 168 L 673 162 L 673 155 L 679 141 L 692 127 L 701 122 L 714 121 L 725 126 L 736 137 L 743 157 L 742 174 L 739 180 L 727 190 L 728 192 L 736 192 L 746 186 L 753 175 L 755 156 L 753 144 Z M 250 417 L 254 421 L 262 440 L 264 453 L 252 463 L 241 467 L 239 471 L 243 474 L 254 472 L 267 474 L 281 481 L 286 487 L 287 507 L 286 513 L 278 525 L 262 526 L 254 529 L 254 534 L 271 551 L 272 557 L 256 577 L 251 578 L 240 574 L 235 574 L 232 577 L 239 601 L 212 617 L 204 615 L 193 602 L 188 601 L 184 606 L 182 622 L 177 628 L 151 622 L 147 616 L 146 602 L 144 600 L 139 603 L 136 616 L 137 623 L 133 629 L 119 627 L 107 621 L 103 617 L 106 608 L 102 605 L 94 609 L 86 609 L 79 605 L 73 598 L 72 592 L 75 571 L 62 568 L 55 561 L 45 543 L 45 530 L 63 516 L 63 512 L 52 508 L 45 502 L 41 487 L 43 474 L 49 466 L 60 460 L 74 460 L 80 457 L 80 452 L 74 446 L 69 436 L 69 431 L 75 423 L 88 412 L 102 412 L 118 428 L 122 429 L 130 438 L 133 438 L 135 434 L 129 417 L 129 401 L 132 398 L 152 392 L 162 392 L 172 404 L 177 417 L 174 438 L 176 441 L 182 441 L 184 438 L 188 407 L 195 399 L 206 400 L 220 408 L 220 420 L 208 441 L 208 444 L 214 447 L 228 426 L 242 418 Z" fill="#000000" fill-rule="evenodd"/>
  </g>
</svg>